<?xml version="1.0" encoding="UTF-8"?>
<svg id="Layer_1" data-name="Layer 1" xmlns="http://www.w3.org/2000/svg" viewBox="0 0 214.39 214.39">
  <defs>
    <style>
      .cls-1 {
        fill: #00e1ff;
      }
    </style>
  </defs>
  <path class="cls-1" d="M165.05,8.46l24.69,56.91-58.81,5.69,5.68-13.25c-35.01-8.93-70.44,9.83-74.02,47.43l-37.95-7.6C30.47,44.29,77.5,12.57,129.74,18.18c6.11.66,21.01,6.37,24.64,5.61,2.66-.55,6.25-19.37,10.68-15.33Z"/>
  <path class="cls-1" d="M85.36,133.72l-13.13,13.95c23.92,29.62,64.11,26,91.63,3.31l25.89,27.26c-30.67,32.32-95.41,38.05-130.78,11.28-12.87-9.74-13.33-23.97-28.61-6.48l-3.81-62.63,58.81,13.31Z"/>
</svg>