<?xml version="1.0" encoding="UTF-8"?>
<svg id="Layer_1" data-name="Layer 1" xmlns="http://www.w3.org/2000/svg" viewBox="0 0 1366 492.52">
  <defs>
    <style>
      .cls-1 {
        letter-spacing: 0em;
      }
      .cls-2 {
        letter-spacing: .01em;
      }
      .cls-3 {
        font-family: Nexa-Bold, Nexa;
        font-size: 124.08px;
        font-weight: 700;
      }
      .cls-3, .cls-4 {
        fill: #00e1ff;
      }
      .cls-5 {
        font-family: NexaBold, 'Nexa Bold';
        font-size: 266.48px;
      }
      .cls-5, .cls-6 {
        fill: #fff;
      }
      .cls-7 {
        letter-spacing: -.02em;
      }
    </style>
  </defs>
  <path class="cls-6" d="M1006.36,189.88l80.65,100.58v-100.58h39.85v180.28c-7.32-1.13-22,2.38-27.65-1.76l-84.31-108.31v110.07h-39.85v-180.28h31.31Z"/>
  <path class="cls-6" d="M735.94,224.02c-7.82.22-25.44,15.71-31.39,14.76-1.92-.31-3.48-5.35-5.61-7.15-15.16-12.79-52.09-20.7-64.44-1.82-18.3,27.99,50.5,28.82,66.4,34.02,33.98,11.12,49.33,41.55,35.4,75.38-17.18,41.71-96.24,45.08-128.44,21.47-5.66-4.15-26.82-28.14-22.93-34.19,1.38-2.15,31.25-16.45,33.22-15.03,5.92,28.69,65.4,36.06,79.88,16.05s-9.36-29.09-24.61-32.4c-35.08-7.6-78.91-6.21-81.41-54.82-3.56-69.18,125.26-76.15,143.94-16.28Z"/>
  <path class="cls-6" d="M809,189.88l44.57,68.31,41.77-68.31h45.54c.54,3.98-.43,6.71-2.16,10.17-7.18,14.33-66.15,89.35-66.15,95.15v74.96h-39.85v-73.06c0-5.54-53.96-79.12-61.52-92.19-2.63-4.53-6.04-9.8-6.79-15.03h44.6Z"/>
  <g>
    <path class="cls-4" d="M1310.9,176.61l24.69,56.91-58.81,5.69,5.68-13.25c-35.01-8.93-70.44,9.83-74.02,47.43l-37.95-7.6c5.83-53.35,52.86-85.07,105.1-79.47,6.11.66,21.01,6.37,24.64,5.61,2.66-.55,6.25-19.37,10.68-15.33Z"/>
    <path class="cls-4" d="M1231.22,301.87l-13.13,13.95c23.92,29.62,64.11,26,91.63,3.31l25.89,27.26c-30.67,32.32-95.41,38.05-130.78,11.28-12.87-9.74-13.33-23.97-28.61-6.48l-3.81-62.63,58.81,13.31Z"/>
  </g>
</svg>